.
..............................Site Info...........................

 -   http://www.scenetime.com  *_*   


Scenetime .Always on time . friendly online private torrent community ..

     We care to share . Join us on  http://www.scenetime.com 

    Be the first to get new release at  http://www.scenetime.com

        Seed back for speed


...................................NFO:.................................................[img]http://i.imgur.com/Ukzb8.jpg[/img]

[b]Intruders.2011.Limited.BRRip.Xvid.AC3-ADTRG[/b]

Two children living in different countries are visited nightly by a faceless being who wants to take possession of them.  

[url]http://www.imdb.com/title/tt1634121/[/url]

Source -   Intruders 2011 LiMiTED 720p BluRay x264-ALLiANCE  Thanks

Complete name                            : Intruders.2011.Limited.BRRip.Xvid.AC3-ADTRG.avi
Format                                   : AVI
Format/Info                              : Audio Video Interleave
File size                                : 1.60 GiB
Duration                                 : 1h 39mn
Overall bit rate                         : 2 298 Kbps
Writing library                          : VirtualDub build 34703/release

Video
ID                                       : 0
Format                                   : MPEG-4 Visual
Codec ID                                 : XVID
Bit rate                                 : 1 905 Kbps
Width                                    : 720 pixels
Height                                   : 304 pixels
Display aspect ratio                     : 2.35:1
Frame rate                               : 23.976 fps
Stream size                              : 1.33 GiB (83%)

Audio
ID                                       : 1
Format                                   : AC-3
Bit rate                                 : 384 Kbps
Channel(s)                               : 6 channels
Channel positions                        : Front: L C R, Side: L R, LFE
Stream size                              : 275 MiB (17%)



Encoder - LiMeY
Good things come in small packages, So feel the wrath of my compression

[img]http://i.imgur.com/2U2pa.jpg[/img]


[IMG]http://i.imgur.com/2739o.gif?1?8830[/IMG]

Dont fear the Atomic Dragon, Embrace it  :)


Greetz to DragonMaster,cOOkies,Mr Geek,DBratt420,AnimeKing,Cush,NoWoRRiEs Rayne, Mr & Mrs IrNbRu and the rest of the crew

Respect to CM8,Goon,Hope,mSD,InfernO,legend-rg and maybe a few more ;)